<svg version="1.1" viewBox="0 0 1096 1152" width="1280" height="1280" xmlns="http://www.w3.org/2000/svg">
<path transform="translate(0)" d="m0 0h1096v1152h-1096z" fill="#FEFDF2"/>
<path transform="translate(390,346)" d="m0 0h9l39 5 65 5 35 2 16 2 8 4 6 7 2 5v80l-7 6-16 8-16 6-17 6-10 4-13 8-7 8-5 12v5h4l2-6 7-9 10-7h3l-1 7-3 13v9l4 17h5l-1-17 2-17 4-10 6-8 14-7 18-6 15-8h2v116l-3 14-4 10-7 9-11 8-14 8-20 11-12 8-10 9-6 10-1 10h6v-7l4-7 9-7 8-4h2l-1 8-1 5v8l6 1 1-12 4-11 8-9 13-8 16-10h2v-2l8-7 6-10 4-11 2-8 9 3 21 8 8 5 7 8 5 1-3-10-3-4v-2l-20-10-15-6-8-6v-77l4 1 15 8 24 9 29 10 13 7 10 8 8 11 2 4h4l-1-7-5-12-7-8v-2h18l13 3 4-1-5-5-13-5-4-1h-21l-6 2-31-11-18-6-14-6-11-7-5-4v-2l-3-1v-114l3-7 6-5 8-2 104-7 27-3 23-3h12l9 6 6 9 1 2v12l-6 39-8 48-7 39-7 35-9 41-8 33-14 53-6 21-7 14-9 8-10 3-49 6-11 1-37 1h-27l-39-1-54-6-13-2-10-6-7-10-5-14-6-23-13-50-12-52-10-48-11-59-8-48-3-22v-14l5-8 7-6z" fill="#6C421A"/>
<path transform="translate(670,201)" d="m0 0h27l11 2 3 3 3 12 1 15-2 15-6 20-9 17-8 10-9 10-13 10-16 8-15 5-10 2h-27l-11-3-2-5-2-12v-18l3-18 4-11 8-16 10-14 7-7 15-11 14-7 15-5z" fill="#529835"/>
<path transform="translate(452,201)" d="m0 0h28l15 3 19 8 14 9 10 9 9 10 8 13 5 11 4 11 3 17v19l-3 14-3 3-11 2h-26l-16-4-15-6-10-6-13-10-9-9-10-15-6-12-5-15-2-11v-25l3-12 7-3z" fill="#529835"/>
<path transform="translate(576,76)" d="m0 0 7 4 14 12 10 12 8 14 6 14 4 16v28l-4 16-7 17-8 12-9 11-10 9-9 6-6-1-12-9-11-11-10-15-7-16-4-13-1-6v-27l3-15 6-15 6-11 10-13 11-11 9-6z" fill="#529835"/>
<path transform="translate(662,773)" d="m0 0h19l12 4 10 9 5 10 3 14v89l-4 16-7 10-7 6-12 5h-18l-11-4-10-9-6-9-3-8-1-7v-88l2-12 7-14 8-7 9-4z" fill="#6D421A"/>
<path transform="translate(759,773)" d="m0 0h20l11 4 6 4 7 8 4 11 2 15v79l-2 15-4 10-9 10-12 6-5 1h-15l-10-3-6-4-8-8-6-11-2-11v-89l2-12 7-13 8-7z" fill="#6D421A"/>
<path transform="translate(437,772)" d="m0 0h9l5 4 5 15 7 37 4 21 3 16 2 6 10-50 9-44 5-4 10-1 5 2 3 3 1 3v149l-4 6-1 1h-13l-6-5-1-5v-13l1-27h-2v10l-6 34-3 5-2 1h-10l-5-3-3-4-4-31-2-13-1 6v36l-2 6-4 3h-11l-5-2-2-3v-153l5-5z" fill="#6D421A"/>
<path transform="translate(544,772)" d="m0 0h36l14 3 8 4 7 8 5 13 2 10v20l-5 17-6 8 1 4 5 10 3 14v43l-3 7-3 3h-12l-4-2-3-7-1-46-3-7-4-4-3-1-17-1-1 57-3 9-3 2h-10l-5-3-3-3v-152l5-5z" fill="#6D421A"/>
<path transform="translate(341,772)" d="m0 0h36l14 3 8 4 7 8 5 12 2 10v22l-2 9-6 12-3 3 1 4 4 7 4 12 1 42-1 9-5 6-2 1h-9l-5-2-3-4-1-44-2-9-2-4-7-4-16-1-1 1-1 60-4 6-3 1h-10l-4-2-3-5v-150l5-6z" fill="#6D421A"/>
<path transform="translate(944,772)" d="m0 0h10l12 3 10 6 7 9 4 10 2 15v8l-3 7-4 2h-10l-5-2-2-3-2-19-4-7-6-3h-9l-6 4-3 6v13l6 10 7 7 14 11 10 8 9 11 6 12 2 10v9l-2 12-6 12-8 7-12 5-5 1h-13l-9-2-8-4-7-6-6-10-3-13-1-16 3-7 3-2h13l5 5 1 3 1 15 3 7 5 4 2 1h8l6-3 4-5 1-4v-7l-4-10-13-13-13-10-10-9-8-10-5-10-1-4v-23l3-10 6-10 9-6 10-4z" fill="#6D421A"/>
<path transform="translate(276,772)" d="m0 0h7l5 3 4 8 8 36 13 58 10 42 1 11-4 5-2 1h-11l-5-2-4-11-5-21-2-10h-23l-3 9-5 24-4 8-4 3h-10l-5-2-3-3v-7l27-117 6-25 4-8z" fill="#6D421A"/>
<path transform="translate(173,772)" d="m0 0h30l8 1 5 5v13l-4 5-3 1-37 1v43l28 1 5 3 2 5v8l-4 7-2 1-16 1-13-1-1 64-5 5-3 1h-8l-7-3-1-3v-151l3-5 2-1z" fill="#6D421A"/>
<path transform="translate(833,772)" d="m0 0h68l5 4 2 6-1 9-2 4-4 2h-21v127l-2 7-6 5h-8l-7-3-1-2-1-68v-66h-19l-6-2-2-2-1-4v-8l3-7z" fill="#6D421A"/>
<path transform="translate(714,970)" d="m0 0h12l10 3 8 6 6 10 3 10 1 12v11l-2 14-6 12-9 8-8 3-13 1-12-3-8-6-6-10-4-13v-23l3-13 6-11 9-8z" fill="#804A1A"/>
<path transform="translate(667,797)" d="m0 0h9l7 4 3 6 1 6v79l-2 12-2 3h-2v2l-5 3h-9l-7-6-4-10v-85l5-10z" fill="#FEFDF2"/>
<path transform="translate(765,797)" d="m0 0h8l6 3 4 5 1 3 1 13v24l-1 55-3 6-5 5-3 1h-7l-5-3-5-6-2-7v-84l3-8z" fill="#FEFDF2"/>
<path transform="translate(541,995)" d="m0 0h16l9 3 7 6 4 8v11l-3 5-5 5-5 2-8 1h-11l-11-2-3-1 3 8 5 4 5 2h15l10-2 6 1 1 5-4 5-11 4h-19l-12-4-8-8-4-8-1-4v-16l4-11 7-8 8-5z" fill="#804A1A"/>
<path transform="translate(789,969)" d="m0 0h9l13 4 7 6 4 8 1 4v10l-4 11-9 10-9 8-14 10-3 3-1 3 10 1h18l11-1 3 3-2 6-4 3-6 2h-28l-11-3-5-3-3-7 2-9 4-5 12-9 17-13 6-8 1-3v-9l-4-6-8-2-11 1-6 4-8 8-6-1-2-4 1-6 5-8 6-4 9-3z" fill="#804A1A"/>
<path transform="translate(639,969)" d="m0 0h8l11 3 7 4 5 7 2 6v14l-4 10-7 8-9 8-15 11-4 3v2l10 2h16l12-1 4 2-1 6-5 4-7 2h-27l-11-3-5-3-3-5v-7l5-8 14-11 13-10 8-9 3-6-1-8-5-5-8-2-10 1-8 5-5 7h-5l-4-4 1-7 6-9 10-5z" fill="#804A1A"/>
<path transform="translate(308,969)" d="m0 0h13l13 4 5 3 1 2-1 9-6-1-12-3h-14l-6 3-2 4v6l4 6 14 5 16 6 6 5 4 7 1 4v8l-6 12-5 5-4 3-9 3h-19l-13-4-5-5-1-2v-6l5-3 15 7h19l6-4 2-4v-8l-4-6-9-4-17-5-9-6-4-5-1-3v-15l4-8 7-6z" fill="#804A1A"/>
<path transform="translate(715,983)" d="m0 0h11l7 4 5 8 2 9v20l-2 10-4 7-10 6h-9l-8-4-4-5-3-8-1-7v-14l2-11 5-9 6-5z" fill="#FEFDF2"/>
<path transform="translate(415,993)" d="m0 0h11l8 4 5 8 3 8 2 20-1 19-4 7h-6l-3-3-2-38-3-8-5-4h-9l-10 5-1 8-1 32-2 7-2 1h-6l-3-12v-42l3-10 6-1 3 3v2l6-1 8-4z" fill="#804A1A"/>
<path transform="translate(477,995)" d="m0 0h19l9 3 3 5-2 5-1 1h-7l-5-1h-14l-7 4-4 8v16l5 9 5 3h15l7-3 5-2 4 1 2 3-1 4-4 5-10 4h-20l-10-4-7-7-5-10-1-3v-14l3-9 4-7 7-7z" fill="#804A1A"/>
<path transform="translate(358,797)" d="m0 0h19l5 2 5 6 2 7v12l-3 10-4 5-7 4-14 1-4-2v-44z" fill="#FEFDF2"/>
<path transform="translate(560,797)" d="m0 0h20l5 2 4 5 3 10v9l-3 11-4 5-8 4-16 1-1-1z" fill="#FEFDF2"/>
<path transform="translate(856,972)" d="m0 0h10l1 3 1 20v26l-1 37-1 1h-8l-2-5-1-65-13 6h-5l-3-4v-5l7-6 12-7z" fill="#6F431A"/>
<path transform="translate(363,993)" d="m0 0 5 1 2 8v48l-2 9-1 1-7-1-2-9-1-27 1-18 2-9z" fill="#814B1A"/>
<path transform="translate(543,1007)" d="m0 0h14l7 6v9l-5 3-8 1h-9l-10-2-1-1 1-8 8-7z" fill="#FEFDF2"/>
<path transform="translate(706,972)" d="m0 0h5v2l-5 2-5 5-4 2-2 9h-2l-1 9 1 9 1 4 4-1 3 17 4 9 2 4-4-2-5-10-2-1-2-6-2-2v8l2 6-1 3 1 6h-2l-5-12-1-5v-23l3-13 6-11 9-8z" fill="#6F431A"/>
<path transform="translate(856,972)" d="m0 0h10l1 3v12h-1l-1-4-1 5-9 1-13 6h-5l-3-4v-5l7-6 12-7z" fill="#804A1A"/>
<path transform="translate(363,1016)" d="m0 0 3 1 3 14v6l-5 5 1 3-1 2 3 1 1-9h1v18l-2 3-7-1-1-12v-17l1-4z" fill="#6D421A"/>
<path transform="translate(458,707)" d="m0 0h15l16 3 34 3 17 1h73l22-1 10-1h10v1l-27 3-37 1h-27l-39-1-54-6-13-2z" fill="#814B1A"/>
<path transform="translate(387,1016)" d="m0 0h5l2 20 1 12 2 5v5l-2 1h-6l-2-6z" fill="#6D421A"/>
<path transform="translate(437,772)" d="m0 0h9l5 4 1 6-2-3-3-4-9-1-5 3-1 2v11l-1 7v63l-1 71h-1v-153l5-5z" fill="#814B1A"/>
<path transform="translate(278,833)" d="m0 0 2 2 4 16 2 15-1 1h-12l-1-3 4-17 1-11z" fill="#FEFDF2"/>
<path transform="translate(735,988)" d="m0 0 5 3 4 8-1 9h2l1 5-1 15-1 5h-2l-2 4-3 5h-3l2-5 2-6 1-7v-20l-2-9-2-4z" fill="#6F431A"/>
<path transform="translate(587,362)" d="m0 0 2 1-5 6-1 27-2 91h-1v-114l3-7z" fill="#804A1A"/>
<path transform="translate(915,876)" d="m0 0h13l-3 2 2 3-1 4-1 2h2l-2 4-4-4-4-1-1 2h-3l-1 5v14h-1l-2-16 1-10z" fill="#804A1A"/>
<path transform="translate(360,971)" d="m0 0h8l3 3 1 5-2 4-4 2h-5l-5-5v-5z" fill="#7F4A1A"/>
<path transform="translate(568,470)" d="m0 0h2v116l-1 6h-1v-111h-4l-1-5 4-2-2-2z" fill="#814B1A"/>
<path transform="translate(502,497)" d="m0 0h3l-1 7-3 13-1 7h-1l-1-10-5-1v-2l-3 1-2-3 4-5z" fill="#814B1A"/>
<path transform="translate(589,507)" d="m0 0 6 2 25 10 27 9v1h-10l-4-3-9-1-4-3-9-1v-2l-11-2-2-3-7-2z" fill="#804A1A"/>
<path transform="translate(942,928)" d="m0 0h2l2 5h2l1-3 9-2 2 2h-2l1 4 2 1-5 1h-13l-9-2 4-1 3 1z" fill="#814B1A"/>
<path transform="translate(904,775)" d="m0 0 3 3 1 10-2 3-1-3-5 1-2-1-2-5v-3h6z" fill="#814B1A"/>
<path transform="translate(676,531)" d="m0 0h18v1h-5v5l-3 8-4-5-6-7z" fill="#814B1A"/>
<path transform="translate(509,658)" d="m0 0h2l-1 8-1 5-10-3v-2l-2-1 8-5z" fill="#814B1A"/>
<path transform="translate(438,1049)" d="m0 0 1 2 3-1v5l-3 4h-6l-2-1v-6l1-2 6 1z" fill="#6F431A"/>
<path transform="translate(608,499)" d="m0 0 12 3 6 3-2 2-8 1-8-3v-3z" fill="#7D491A"/>
<path transform="translate(753,930)" d="m0 0 4 1h-2v2l15 1 1-2 3-1 4 2h7l-3 2-5 1h-15l-10-3z" fill="#814B1A"/>
<path transform="translate(489,879)" d="m0 0h2l1 4v28h-1v-25h-2v10l-1 7h-1l1-22z" fill="#814B1A"/>
<path transform="translate(964,808)" d="m0 0 2 4v9h3l4 6-1 3h-5l-2-3z" fill="#814B1A"/>
<path transform="translate(739,977)" d="m0 0 4 1 5 7v5l-4-1-1-4-3-1-2-6z" fill="#6F431A"/>
<path transform="translate(657,987)" d="m0 0 4 1 2 2v7l-2 6-3 2 1-12z" fill="#6F431A"/>
<path transform="translate(659,974)" d="m0 0 5 1 6 8 1 6h-2v-3h-2l-1-4-4-2z" fill="#71441A"/>
<path transform="translate(929,920)" d="m0 0 5 2 5 5-2 4-3 1-3-3-1-7z" fill="#7F4A1A"/>
<path transform="translate(367,1036)" d="m0 0h3v14l-6-3-1-6 4-2z" fill="#814B1A"/>
<path transform="translate(529,1021)" d="m0 0 1 3h5l-2 7-1 1-1 7-2-1 1-8-2-5z" fill="#6E431A"/>
<path transform="translate(677,932)" d="m0 0 10 1-3 2-3 1h-18l-4-2h15z" fill="#814B1A"/>
<path transform="translate(647,529)" d="m0 0 9 3 9 5v3l-1-2-7-1-2-1v-3l-8-1z" fill="#814B1A"/>
<path transform="translate(524,489)" d="m0 0 2 1-8 8-4 8-2 9h-1l1-10 5-9 4-5z" fill="#7D491A"/>
<path transform="translate(944,780)" d="m0 0 4 2 1 3-8 1-3-1-1 2v-3l4-3z" fill="#814B1A"/>
<path transform="translate(333,1015)" d="m0 0 4 1 6 9v8l-2-2-4-12-2-1z" fill="#71441A"/>
<path transform="translate(928,877)" d="m0 0 4 2 2 5v15h-1l-2-13-1-7h-2z" fill="#814B1A"/>
<path transform="translate(812,975)" d="m0 0 4 2 5 7-1 4-1-4h-2l-5-5z" fill="#71441A"/>
<path transform="translate(954,844)" d="m0 0 4 2 6 5-1 4-4-3v-2l-4-2z" fill="#7C491A"/>
<path transform="translate(655 1e3)" d="m0 0 3 1-2 5h-3l-1 3h-2l1-4z" fill="#70441A"/>
<path transform="translate(361,994)" d="m0 0h5v5l-4 2z" fill="#6E421A"/>
<path transform="translate(856,972)" d="m0 0h10v3h-9z" fill="#73451A"/>
<path transform="translate(453,878)" d="m0 0 2 1 1 5v7h-1l-1-6-1 6h-1v-12z" fill="#814B1A"/>
<path transform="translate(651,519)" d="m0 0h10l1 3 2 1-2 1-11-4z" fill="#814B1A"/>
<path transform="translate(714,970)" d="m0 0h12v2l-13 1z" fill="#75461A"/>
</svg>
